<?xml version="1.0" standalone="no"?>
<!DOCTYPE svg PUBLIC "-//W3C//DTD SVG 20010904//EN"
 "http://www.w3.org/TR/2001/REC-SVG-20010904/DTD/svg10.dtd">
<svg version="1.0" xmlns="http://www.w3.org/2000/svg"
 width="500.000000pt" height="500.000000pt" viewBox="0 0 500.000000 500.000000"
 preserveAspectRatio="xMidYMid meet">
<metadata>
Created by potrace 1.14, written by Peter Selinger 2001-2017
</metadata>
<g transform="translate(0.000000,500.000000) scale(0.100000,-0.100000)"
fill="#000000" stroke="none">
<path d="M2260 4970 c-30 -4 -82 -10 -115 -14 -181 -22 -445 -95 -627 -174
-305 -133 -556 -304 -797 -543 -205 -202 -403 -497 -522 -776 -52 -122 -118
-324 -132 -403 -3 -14 -10 -43 -15 -65 -13 -49 -21 -100 -42 -260 -8 -70 -6
-488 3 -535 3 -14 8 -47 12 -75 11 -92 47 -249 81 -363 123 -406 327 -746 629
-1047 349 -349 777 -582 1250 -681 83 -17 96 -17 89 2 -5 18 -5 18 6 2 10 -17
42 -18 440 -18 460 0 472 1 665 56 306 87 626 252 880 454 131 105 333 314
438 455 214 288 370 630 441 968 46 217 55 316 51 572 -2 121 -5 229 -8 240
-2 11 -8 47 -12 80 -4 32 -9 68 -12 80 -2 11 -6 31 -9 45 -2 14 -10 48 -16 75
-7 28 -13 52 -13 55 -17 73 -87 281 -122 360 -245 558 -653 992 -1183 1256
-281 140 -540 215 -875 254 -85 10 -409 10 -485 0z"/>
</g>
</svg>
